<svg id="mermaid-1693945186476" width="100%" xmlns="http://www.w3.org/2000/svg" xmlns:xlink="http://www.w3.org/1999/xlink" height="742.625" style="max-width: 545.109375px;" viewBox="-20 -20 545.109375 742.625"><style>#mermaid-1693945186476{font-family:"trebuchet ms",verdana,arial,sans-serif;font-size:16px;fill:#333;}#mermaid-1693945186476 .error-icon{fill:#552222;}#mermaid-1693945186476 .error-text{fill:#552222;stroke:#552222;}#mermaid-1693945186476 .edge-thickness-normal{stroke-width:2px;}#mermaid-1693945186476 .edge-thickness-thick{stroke-width:3.5px;}#mermaid-1693945186476 .edge-pattern-solid{stroke-dasharray:0;}#mermaid-1693945186476 .edge-pattern-dashed{stroke-dasharray:3;}#mermaid-1693945186476 .edge-pattern-dotted{stroke-dasharray:2;}#mermaid-1693945186476 .marker{fill:#333333;stroke:#333333;}#mermaid-1693945186476 .marker.cross{stroke:#333333;}#mermaid-1693945186476 svg{font-family:"trebuchet ms",verdana,arial,sans-serif;font-size:16px;}#mermaid-1693945186476 g.classGroup text{fill:#9370DB;fill:#131300;stroke:none;font-family:"trebuchet ms",verdana,arial,sans-serif;font-size:10px;}#mermaid-1693945186476 g.classGroup text .title{font-weight:bolder;}#mermaid-1693945186476 .classTitle{font-weight:bolder;}#mermaid-1693945186476 .node rect,#mermaid-1693945186476 .node circle,#mermaid-1693945186476 .node ellipse,#mermaid-1693945186476 .node polygon,#mermaid-1693945186476 .node path{fill:#ECECFF;stroke:#9370DB;stroke-width:1px;}#mermaid-1693945186476 .divider{stroke:#9370DB;stroke:1;}#mermaid-1693945186476 g.clickable{cursor:pointer;}#mermaid-1693945186476 g.classGroup rect{fill:#ECECFF;stroke:#9370DB;}#mermaid-1693945186476 g.classGroup line{stroke:#9370DB;stroke-width:1;}#mermaid-1693945186476 .classLabel .box{stroke:none;stroke-width:0;fill:#ECECFF;opacity:0.5;}#mermaid-1693945186476 .classLabel .label{fill:#9370DB;font-size:10px;}#mermaid-1693945186476 .relation{stroke:#333333;stroke-width:1;fill:none;}#mermaid-1693945186476 .dashed-line{stroke-dasharray:3;}#mermaid-1693945186476 #compositionStart,#mermaid-1693945186476 .composition{fill:#333333 !important;stroke:#333333 !important;stroke-width:1;}#mermaid-1693945186476 #compositionEnd,#mermaid-1693945186476 .composition{fill:#333333 !important;stroke:#333333 !important;stroke-width:1;}#mermaid-1693945186476 #dependencyStart,#mermaid-1693945186476 .dependency{fill:#333333 !important;stroke:#333333 !important;stroke-width:1;}#mermaid-1693945186476 #dependencyStart,#mermaid-1693945186476 .dependency{fill:#333333 !important;stroke:#333333 !important;stroke-width:1;}#mermaid-1693945186476 #extensionStart,#mermaid-1693945186476 .extension{fill:#333333 !important;stroke:#333333 !important;stroke-width:1;}#mermaid-1693945186476 #extensionEnd,#mermaid-1693945186476 .extension{fill:#333333 !important;stroke:#333333 !important;stroke-width:1;}#mermaid-1693945186476 #aggregationStart,#mermaid-1693945186476 .aggregation{fill:#ECECFF !important;stroke:#333333 !important;stroke-width:1;}#mermaid-1693945186476 #aggregationEnd,#mermaid-1693945186476 .aggregation{fill:#ECECFF !important;stroke:#333333 !important;stroke-width:1;}#mermaid-1693945186476 .edgeTerminals{font-size:11px;}#mermaid-1693945186476:root{--mermaid-font-family:"trebuchet ms",verdana,arial,sans-serif;}</style><g></g><defs><marker id="extensionStart" class="extension" refX="0" refY="7" markerWidth="190" markerHeight="240" orient="auto"><path d="M 1,7 L18,13 V 1 Z"></path></marker></defs><defs><marker id="extensionEnd" refX="19" refY="7" markerWidth="20" markerHeight="28" orient="auto"><path d="M 1,1 V 13 L18,7 Z"></path></marker></defs><defs><marker id="compositionStart" class="extension" refX="0" refY="7" markerWidth="190" markerHeight="240" orient="auto"><path d="M 18,7 L9,13 L1,7 L9,1 Z"></path></marker></defs><defs><marker id="compositionEnd" refX="19" refY="7" markerWidth="20" markerHeight="28" orient="auto"><path d="M 18,7 L9,13 L1,7 L9,1 Z"></path></marker></defs><defs><marker id="aggregationStart" class="extension" refX="0" refY="7" markerWidth="190" markerHeight="240" orient="auto"><path d="M 18,7 L9,13 L1,7 L9,1 Z"></path></marker></defs><defs><marker id="aggregationEnd" refX="19" refY="7" markerWidth="20" markerHeight="28" orient="auto"><path d="M 18,7 L9,13 L1,7 L9,1 Z"></path></marker></defs><defs><marker id="dependencyStart" class="extension" refX="0" refY="7" markerWidth="190" markerHeight="240" orient="auto"><path d="M 5,7 L9,13 L1,7 L9,1 Z"></path></marker></defs><defs><marker id="dependencyEnd" refX="19" refY="7" markerWidth="20" markerHeight="28" orient="auto"><path d="M 18,7 L9,13 L14,7 L9,1 Z"></path></marker></defs><g id="classid-Quiz-0" class="classGroup" transform="translate(121.42578125,356.3125 )"><rect x="0" y="0" width="179.015625" height="138.09375" class=" "></rect><text y="15" x="0"><tspan class="title" x="78.875">Quiz</tspan></text><line x1="0" y1="21" y2="21" x2="179.015625"></line><text x="5" y="31" fill="white" class="classText"><tspan x="5">UUID id</tspan><tspan x="5" dy="10">String title</tspan><tspan x="5" dy="10">Atom state</tspan><tspan x="5" dy="10">Question[] questions</tspan><tspan x="5" dy="10">User user</tspan></text><line x1="0" y1="77" y2="77" x2="179.015625"></line><text x="5" y="92" fill="white" class="classText"><tspan x="5">destroy()</tspan><tspan x="5" dy="10">create(String title)</tspan><tspan x="5" dy="10">read()</tspan><tspan x="5" dy="10">update(Map[] questions, String title)</tspan><tspan x="5" dy="10">publish()</tspan></text></g><g id="classid-Question-1" class="classGroup" transform="translate(156.578125,168.15625 )"><rect x="0" y="0" width="348.53125" height="138.15625" class=" "></rect><text y="15" x="0"><tspan class="title" x="153.484375">Question</tspan></text><line x1="0" y1="21" y2="21" x2="348.53125"></line><text x="5" y="31" fill="white" class="classText"><tspan x="5">UUID id</tspan><tspan x="5" dy="10">String text</tspan><tspan x="5" dy="10">Integer order</tspan><tspan x="5" dy="10">Option[] options</tspan><tspan x="5" dy="10">String correct_option</tspan><tspan x="5" dy="10">Quiz quiz</tspan></text><line x1="0" y1="87.0625" y2="87.0625" x2="348.53125"></line><text x="5" y="102.0625" fill="white" class="classText"><tspan x="5">destroy()</tspan><tspan x="5" dy="10">update(Integer order, String text, Option[] options, String correct_option)</tspan><tspan x="5" dy="10">read()</tspan><tspan x="5" dy="10">create(Integer order, String text, Option[] options, String correct_option)</tspan></text></g><g id="classid-QuizAttempt-2" class="classGroup" transform="translate(40.328125,544.40625 )"><rect x="0" y="0" width="216.703125" height="158.21875" class=" "></rect><text y="15" x="0"><tspan class="title" x="78.515625">QuizAttempt</tspan></text><line x1="0" y1="21.0625" y2="21.0625" x2="216.703125"></line><text x="5" y="31.0625" fill="white" class="classText"><tspan x="5">UUID id</tspan><tspan x="5" dy="10">Boolean finished</tspan><tspan x="5" dy="10">UUID quiz_id</tspan><tspan x="5" dy="10">Decimal score</tspan><tspan x="5" dy="10">Integer count_of_quiz_questions</tspan><tspan x="5" dy="10">Integer count_of_right_answers</tspan><tspan x="5" dy="10">Quiz quiz</tspan><tspan x="5" dy="10">Guess[] guesses</tspan></text><line x1="0" y1="107.125" y2="107.125" x2="216.703125"></line><text x="5" y="122.125" fill="white" class="classText"><tspan x="5">read()</tspan><tspan x="5" dy="10">start(UUID quiz_id)</tspan><tspan x="5" dy="10">finish()</tspan><tspan x="5" dy="10">make_guess(UUID question_id, String option)</tspan></text></g><g id="classid-Guess-3" class="classGroup" transform="translate(0,0 )"><rect x="0" y="0" width="297.359375" height="118.15625" class=" "></rect><text y="15" x="0"><tspan class="title" x="135.1875">Guess</tspan></text><line x1="0" y1="21" y2="21" x2="297.359375"></line><text x="5" y="31" fill="white" class="classText"><tspan x="5">UUID id</tspan><tspan x="5" dy="10">String option</tspan><tspan x="5" dy="10">UUID quiz_attempt_id</tspan><tspan x="5" dy="10">UUID question_id</tspan><tspan x="5" dy="10">QuizAttempt quiz_attempt</tspan><tspan x="5" dy="10">Question question</tspan></text><line x1="0" y1="87.0625" y2="87.0625" x2="297.359375"></line><text x="5" y="102.0625" fill="white" class="classText"><tspan x="5">read()</tspan><tspan x="5" dy="10">upsert(UUID quiz_attempt_id, UUID question_id, String option)</tspan></text></g><g id="classid-User-4" class="classGroup" transform="translate(75.46875,222.234375 )"><rect x="0" y="0" width="31.109375" height="30" class=" "></rect><text y="15" x="0"><tspan class="title" x="5">User</tspan></text><line x1="0" y1="21" y2="21" x2="31.109375"></line><text x="5" y="31" fill="white" class="classText"></text><line x1="0" y1="26" y2="26" x2="31.109375"></line><text x="5" y="41" fill="white" class="classText"></text></g><path d="M91.0234375,252.234375L91.0234375,265.4140625C91.0234375,278.59375,91.0234375,304.953125,96.33595480630781,322.2994791666667C101.64847211261561,339.6458333333333,112.27350672523123,347.9791666666667,117.58602403153903,352.1458333333333L122.89854133784682,356.3125" id="edge0" class="relation"></path><path d="M276.67863199219477,118.15625L285.70615166016233,122.32291666666667C294.73367132812984,126.48958333333333,312.7887106640649,134.82291666666666,321.8162303320325,143.15625C330.84375,151.48958333333334,330.84375,159.82291666666666,330.84375,163.98958333333334L330.84375,168.15625" id="edge1" class="relation"></path><path d="M46.66260192111132,118.15625L39.4675328509261,122.32291666666667C32.27246378074088,126.48958333333333,17.88232564037044,134.82291666666666,10.68725657018522,154.66927083333334C3.4921875,174.515625,3.4921875,205.875,3.4921875,237.234375C3.4921875,268.59375,3.4921875,299.953125,3.4921875,331.3072916666667C3.4921875,362.6614583333333,3.4921875,394.0104166666667,3.4921875,425.359375C3.4921875,456.7083333333333,3.4921875,488.0572916666667,9.631510416666666,508.1340855765264C15.770833333333334,528.2108794863861,28.049479166666668,537.0155089727723,34.188802083333336,541.4178237159654L40.328125,545.8201384591584" id="edge2" class="relation"></path><path d="M330.84375,306.3125L330.84375,310.4791666666667C330.84375,314.6458333333333,330.84375,322.9791666666667,325.5312326936922,331.3125C320.2187153873844,339.6458333333333,309.59368077476876,347.9791666666667,304.281163468461,352.1458333333333L298.96864616215316,356.3125" id="edge3" class="relation"></path><path d="M210.93359375,494.40625L210.93359375,498.5729166666667C210.93359375,502.7395833333333,210.93359375,511.0729166666667,208.4420671603757,519.40625C205.9505405707514,527.7395833333334,200.96748739150283,536.0729166666666,198.47596080187853,540.2395833333334L195.98443421225426,544.40625" id="edge4" class="relation"></path></svg>